<svg version="1.1" id="Livello_1" xmlns="http://www.w3.org/2000/svg" x="0" y="0" viewBox="0 0 977 287.7" xml:space="preserve">
  <style type="text/css">
    .st0{fill:#1b6eec}.st3{fill:#d84c39}
  </style>
  <path class="st0" d="M65 8.9c21.1-8.7 44.5-10.2 67-8 21.9 2.2 43.4 9.5 61.5 22-8.9 9.4-18.3 18.5-27.6 27.7-.1-5.5 0-11-.1-16.5-7.9-6.8-16.1-13.4-26-17.1-14.5-5.6-30.7-6.8-46-4.6-17.1 2.8-33.2 11.8-44.1 25.3-13.8 16.6-19.6 38.8-18.9 60.2.7 23.5 9.2 46.8 24.2 64.9 12.7 15.4 30.4 26.8 49.9 31.1 9.5 2.3 19.4 2.2 29.1 1.9 10.7-.5 21.4-2.2 31.7-5.3.3-16.9 0-33.7.1-50.6-12.1 0-24.1.1-36.2 0 3.5-3.9 7.4-7.5 11-11.2 1.1-1.2 2.8-.6 4.2-.8 20.5.1 41 0 61.5.1-3.4 3.7-7.2 7.1-10.6 10.8-1.8 1.9-1.8 4.7-1.9 7.1V196c-27.9 8-56.9 13-86 12.7-27 .1-54.7-8.6-75.1-26.8C14 165.5 3 141.4.6 116.9-1.5 99.5.5 81.5 7.4 65.3 18.1 39.8 39.4 19.2 65 8.9z"/>
  <path d="M659.8 5.6c.9-.8 1.7-2 3.1-1.8h45.6c-3.5 3.7-7.2 7.1-10.7 10.9-1.8 1.9-1.8 4.7-1.8 7.1v160c-.3 3.8 1.5 8.3 5.5 9.3 5.3 1.1 10.8 1.4 16.2 2.2.5 1.2-1.1 1.9-1.6 2.7-2 2-4 3.9-6 5.9-18.2-.1-36.4 0-54.7-.1 3.4-3.8 7.2-7.1 10.7-10.8 1.7-1.9 1.8-4.7 1.9-7.1v-168h-18.2c3.2-3.6 6.7-6.8 10-10.3z" fill="#0d9b5c"/>
  <path d="M921 77.9h12v44h44v12h-44v45h-12v-45h-45v-12h45v-44z" fill="#020202"/>
  <path class="st3" d="M354.9 117c-4.9-16-16.2-30.1-31-38.1-13.4-7.4-29.4-9.3-44.4-7.3-17.4 2.3-34.2 10.8-45.6 24.2-10 11.6-15.8 26.7-16 42-.4 17.2 6.2 34.5 17.9 47.2 10.3 11.3 24.9 18.3 40 20.2 17 2.2 35-.6 49.8-9.7 14.2-8.6 24.8-22.8 29.6-38.7 3.9-12.9 3.8-26.9-.3-39.8zm-31.1 62.8c-8.4 14.5-27.9 21.1-43.4 14.6-12.3-5-20.5-16.5-25.7-28.3-5.6-13-8.6-27.2-8.9-41.3-.1-9.3 1.1-19 6.3-27 5.7-9.1 15.7-15.1 26.2-16.7 11-1.8 22.7 2 30.5 10 11.8 11.8 17.2 28.4 20.1 44.5 2.1 14.8 2.6 31-5.1 44.2z"/>
  <path d="M508.9 117.1c-4.9-15.8-15.8-29.7-30.3-37.8-13.3-7.5-29.1-9.7-44.2-7.8-17.8 2.1-34.9 10.6-46.5 24.3-10 11.6-15.8 26.7-16 41.9-.5 17.2 6.1 34.6 17.9 47.2 10.2 11.2 24.6 18.2 39.5 20.2 17.4 2.3 35.8-.6 50.8-10 14-8.6 24.3-22.7 29-38.4 4-12.8 3.9-26.8-.2-39.6zm-31.1 62.6c-8.2 14.4-27.3 21-42.8 15.1-12.4-4.7-20.8-16.1-26.1-27.9-5.9-13.2-8.9-27.6-9.2-42-.1-9.5 1.2-19.5 6.7-27.5 5.7-8.8 15.5-14.6 25.8-16.2 10.8-1.8 22.2 1.8 29.9 9.5 11.9 11.5 17.4 27.9 20.4 43.8 2.5 14.9 3.2 31.6-4.7 45.2z" fill="#ffba0e"/>
  <path class="st3" d="M817 189.8c-13.6 3.2-28.4.7-40.1-7.1-14.4-9.3-23.8-24.9-27.8-41.4 28.8-11.4 57.3-23.2 86.1-34.6-3.5-14.6-14.3-27.3-28.7-32.2-15-5.1-32-5.1-46.7 1.1-15.2 6.2-28 18.5-34 33.9-6.5 16.5-6.2 35.4-.5 52.1 5.4 15.8 16.6 29.9 31.6 37.4 12.9 6.6 27.9 7.9 42.2 6.3 16.2-1.9 31-11.2 40.6-24.2-7.4 3.2-14.6 7.1-22.7 8.7zm-66.9-91.7c6.6-12.8 22.8-20.9 36.8-16.1 8.5 2.8 16.1 9.4 18.6 18.2.6 2.4 1.2 5.4-.5 7.5-2 2.3-5 3.2-7.8 4.3-16.7 6.7-33.4 13.6-50.1 20.3-2.2-11.3-2.4-23.7 3-34.2z"/>
  <path class="st0" d="M643.7 215.2c-4.8-9.4-13.2-16.1-21.2-22.7-4.9-4.1-10.8-7.3-14.4-12.7-3.7-6.1-.7-14.1 4.5-18.4 5.9-5 12.4-9.6 17-16 8.2-10.4 10.2-24.8 7-37.5-2.5-10-9.3-18.3-16.9-25.1 5.1-.1 10.2-.1 15.3 0 4-3.9 8-7.9 12-12-19-.2-38 0-57-.1-10.9-.2-22 1.5-32.1 6-11 4.8-20.5 13.5-25.7 24.4-5.7 12-7.1 26.3-2.4 38.9 4.4 12.7 15 23.2 27.9 27.2 7.7 2.7 15.9 2.4 24 2.5-2 5.2-2.8 11.1-1.3 16.5 1.2 4.6 4.3 8.2 7.3 11.7-18.7 1.4-38.1 4.4-54.3 14.3-10.5 6.2-18.9 16.6-20.9 28.8-2 10.2 1.6 21.1 8.6 28.6 10.2 11.1 25.3 15.9 39.9 17.5 16.9 1.6 34.4.3 50.2-6 12.7-5.1 24.4-13.8 31-25.9 6.8-12.1 7.9-27.6 1.5-40zm-56.8-54.3c-8.6-.1-16.4-5-21.7-11.5-7.3-8.9-11.3-20.1-12.8-31.4-1.1-8.7-.7-18.1 3.7-25.9 3.3-6 9.4-10.4 16.3-11.7 8.8-1.7 18 1.5 24.5 7.6 8.9 8.3 14.1 19.9 16.7 31.7 1.9 8.9 2.4 18.6-1.7 26.9-4.5 9.2-14.9 14.6-25 14.3zm33.3 103.3c-8.6 8-20.8 10.7-32.3 10.9-12.7 0-25.9-2.4-36.5-9.7-8-5.5-13.9-14.6-13.7-24.5-.4-8 3.2-15.9 9.2-21 9-7.9 21.1-10.8 32.7-12.1 6.1-.6 12.3-1.3 18.4-.5 5.4 3.4 10.4 7.4 15.4 11.3 6.2 5.2 12.7 11 14.8 19.1 2.6 9.4-.8 19.9-8 26.5z"/>
</svg>
