<?xml version="1.0" encoding="UTF-8" standalone="no"?>
<svg
   xmlns:dc="http://purl.org/dc/elements/1.1/"
   xmlns:cc="http://creativecommons.org/ns#"
   xmlns:rdf="http://www.w3.org/1999/02/22-rdf-syntax-ns#"
   xmlns:svg="http://www.w3.org/2000/svg"
   xmlns="http://www.w3.org/2000/svg"
   version="1.1"
   id="Livello_1"
   x="0px"
   y="0px"
   viewBox="0 0 5895.359 5895.359"
   xml:space="preserve"><defs
   id="defs45"><linearGradient
     id="SVGID_1_"
     gradientUnits="userSpaceOnUse"
     x1="1479.1426"
     y1="2779.8223"
     x2="5346.4985"
     y2="1405.6675"
     gradientTransform="matrix(1,0,0,-1,0,5897.3594)">
		<stop
   offset="0"
   style="stop-color:#3E2723;stop-opacity:0.2"
   id="stop10" />
		<stop
   offset="1"
   style="stop-color:#3E2723;stop-opacity:0.02"
   id="stop12" />
	</linearGradient><radialGradient
     id="SVGID_2_"
     cx="1339.8544"
     cy="5126.9429"
     r="5589.8726"
     gradientTransform="matrix(1,0,0,-1,0,5897.3594)"
     gradientUnits="userSpaceOnUse">
		<stop
   offset="0"
   style="stop-color:#FFFFFF;stop-opacity:0.1"
   id="stop33" />
		<stop
   offset="1"
   style="stop-color:#FFFFFF;stop-opacity:0"
   id="stop35" />
	</radialGradient><filter
     style="color-interpolation-filters:sRGB"
     id="filter910"
     x="-0.027970399"
     width="1.0559408"
     y="-0.027410993"
     height="1.054822"><feGaussianBlur
       stdDeviation="30.605607"
       id="feGaussianBlur912" /></filter><filter
     style="color-interpolation-filters:sRGB"
     id="filter929"
     x="-0.086825028"
     width="1.1736501"
     y="-0.086825028"
     height="1.1736501"><feGaussianBlur
       stdDeviation="58.166438"
       id="feGaussianBlur931" /></filter></defs><circle
   fill="url(#SVGID_2_)"
   cx="2947.6799"
   cy="2947.6799"
   r="2947.6799"
   id="circle38"
   style="fill:url(#SVGID_2_)" /><circle
   fill="#db4437"
   cx="2947.6799"
   cy="2947.6799"
   r="2947.6799"
   id="circle4" /><path
   fill="#ffffff"
   fill-opacity="0.2"
   d="m 2947.68,32.157 c 1621.224,0 2939.641,1310.378 2947.68,2931.601 V 2947.68 C 5895.359,1318.417 4576.942,0 2947.68,0 1318.418,0 0,1318.417 0,2947.68 v 16.078 C 8.039,1345.214 1326.456,32.157 2947.68,32.157 Z"
   id="path6" /><path
   fill="#3e2723"
   fill-opacity="0.2"
   d="M 2947.68,5863.203 C 1326.456,5863.203 8.039,4552.825 0,2931.601 v 16.078 c 0,1629.263 1318.417,2947.68 2947.68,2947.68 1629.263,0 2947.68,-1318.417 2947.68,-2947.68 v -16.078 c -8.04,1618.545 -1326.457,2931.602 -2947.68,2931.602 z"
   id="path8" /><path
   fill="url(#SVGID_1_)"
   d="M 5881.92,3229.01 C 5619.45,2966.54 4783.28,2130.368 4783.28,2130.368 h -458.23 v 667.248 H 3882.898 L 3041.47,1956.188 h -2.679 c -230.457,-217.057 -533.262,-348.363 -895.024,-348.363 -522.543,0 -978.093,300.128 -1197.828,736.919 -91.111,182.22 -142.026,385.878 -142.026,602.935 0,217.057 50.915,420.713 142.026,602.933 69.672,139.345 166.14,265.292 278.689,372.481 l 372.479,372.479 1590.063,1590.063 C 4610.123,5771.203 5747.703,4646.288 5881.92,3229.01 Z"
   id="path15"
   style="fill:url(#SVGID_1_)" /><path
   opacity="0.4"
   fill="#ffffff" 
   d="m 2143.767,2738.662 h 1254.104 c 18.758,77.712 29.477,155.423 32.156,254.572 v -13.399 c 0,-109.868 -13.398,-190.259 -32.156,-273.33 H 2143.767 Z m 0,-1098.68 c 351.042,0 648.49,128.626 876.265,334.964 l 18.758,-18.758 c -230.455,-214.377 -533.262,-348.362 -895.023,-348.362 -739.6,0 -1339.854,600.255 -1339.854,1339.854 0,5.359 2.68,10.719 2.68,16.078 8.038,-731.561 602.934,-1323.776 1337.174,-1323.776 z m 0,2202.72 c 538.621,0 761.037,-388.558 782.475,-645.81 h -5.36 c -37.516,257.252 -259.932,613.653 -777.115,613.653 -460.91,0 -833.389,-377.839 -844.108,-844.108 0,5.36 -2.68,10.719 -2.68,16.078 2.68,474.309 380.519,860.187 846.788,860.187 z"
   id="path17" /><path
   opacity="0.1"
   fill="#3e2723"
   d="m 2143.767,2087.493 c -466.269,0 -844.108,385.878 -844.108,860.187 0,5.359 2.68,10.719 2.68,16.078 8.039,-466.269 380.519,-844.108 841.429,-844.108 265.291,0 442.152,115.228 543.981,209.017 l 353.721,-340.323 c -5.36,-5.359 -13.399,-10.719 -18.758,-16.078 l -332.284,321.565 c -104.509,-93.79 -281.37,-206.338 -546.661,-206.338 z m 0,2200.041 c -734.24,0 -1329.136,-592.216 -1337.175,-1323.776 0,5.359 -2.68,10.719 -2.68,16.078 0,739.6 600.255,1339.854 1339.854,1339.854 774.436,0 1286.26,-543.98 1286.26,-1310.377 v -18.758 c -8.038,758.357 -517.183,1296.979 -1286.259,1296.979 z m 0,-1125.478 v 32.156 h 777.115 c 2.68,-10.719 5.36,-24.117 5.36,-32.156 z"
   id="path19" /><path
   fill="#eeeeee"
   d="m 3045.7366,3272.401 c -21.438,259.932 -243.854,645.81 -782.475,645.81 -466.269,0 -844.108,-385.878 -844.108,-860.187 0,-474.309 377.839,-860.187 844.108,-860.187 265.291,0 442.152,115.228 543.981,209.017 l 353.721,-340.323 c -233.135,-214.376 -535.941,-348.362 -897.702,-348.362 -739.6,0 -1339.85401,600.255 -1339.85401,1339.854 0,739.599 600.25501,1339.854 1339.85401,1339.854 774.436,0 1286.26,-543.981 1286.26,-1310.378 0,-109.868 -13.398,-190.259 -32.156,-273.33 h -1254.104 v 458.23 h 782.475 z"
   id="path23-4"
   style="opacity:0.367089;fill:#a6554e;filter:url(#filter910);fill-opacity:1" /><path
   fill="#eeeeee"
   d="m 2926.242,3162.056 c -21.438,259.932 -243.854,645.81 -782.475,645.81 -466.269,0 -844.108,-385.878 -844.108,-860.187 0,-474.309 377.839,-860.187 844.108,-860.187 265.291,0 442.152,115.228 543.981,209.017 l 353.721,-340.323 c -233.135,-214.376 -535.941,-348.362 -897.702,-348.362 -739.6,0 -1339.854,600.255 -1339.854,1339.854 0,739.599 600.255,1339.854 1339.854,1339.854 774.436,0 1286.26,-543.981 1286.26,-1310.378 0,-109.868 -13.398,-190.259 -32.156,-273.33 H 2143.767 v 458.23 h 782.475 z"
   id="path23" /><path
   fill="#eeeeee"
   d="m 5444.1962,2850.3895 h -576.137 v -573.458 h -455.551 v 573.458 h -576.137 v 458.23 h 576.137 v 576.137 h 455.551 v -576.137 h 576.137"
   id="path25-7"
   style="opacity:0.487342;fill:#a8544d;fill-opacity:1;filter:url(#filter929)" /><path
   fill="#eeeeee"
   d="M 5359.417,2703.826 H 4783.28 v -573.458 h -455.551 v 573.458 h -576.137 v 458.23 h 576.137 v 576.137 h 455.551 v -576.137 h 576.137"
   id="path25" />
</svg>
