<?xml version="1.0" encoding="utf-8"?>
<!-- Generator: Adobe Illustrator 22.0.1, SVG Export Plug-In . SVG Version: 6.00 Build 0)  -->
<svg version="1.1" id="Layer_1" xmlns="http://www.w3.org/2000/svg" xmlns:xlink="http://www.w3.org/1999/xlink" x="0px" y="0px"
	 viewBox="0 0 800 800" style="enable-background:new 0 0 800 800;" xml:space="preserve">
<style type="text/css">
	.st0{fill:#D7DD3E;}
	.st1{fill:#C8CD35;}
	.st2{fill:#FFFFFF;}
</style>
<circle class="st0" cx="400" cy="400" r="322.2"/>
<path class="st1" d="M719,445.2L593.3,319.5L570,380.7l-43.4,21.7L417.3,292.9L222,305.6l-9.4,192l222.6,222.6
	c93.7-10.2,175.3-60.5,227.3-133.5l0,0C691.8,545.7,711.6,497.4,719,445.2z"/>
<path class="st2" d="M461.5,371l-0.8-3.2H319.5v48.3h95.2c-7.7,45.7-47.3,80.5-95.2,80.5c-53.4,0-96.6-43.3-96.6-96.6
	s43.3-96.6,96.6-96.6c24.2,0,46.2,8.9,63.1,23.6l34.6-33.9c-25.8-23.6-60.1-38-97.8-38c-80.1,0-145,64.9-145,145s64.9,145,145,145
	s145-64.9,145-145C464.4,390.1,463.4,380.4,461.5,371z"/>
<polygon class="st2" points="641.6,367.8 593.3,367.8 593.3,319.5 561.1,319.5 561.1,367.8 512.8,367.8 512.8,400 561.1,400 
	561.1,448.3 593.3,448.3 593.3,400 641.6,400 "/>
</svg>
