<?xml version="1.0" encoding="utf-8"?>
<!-- Generator: Adobe Illustrator 16.0.0, SVG Export Plug-In . SVG Version: 6.00 Build 0)  -->
<!DOCTYPE svg PUBLIC "-//W3C//DTD SVG 1.1//EN" "http://www.w3.org/Graphics/SVG/1.1/DTD/svg11.dtd">
<svg version="1.1" id="Layer_1" xmlns="http://www.w3.org/2000/svg" xmlns:xlink="http://www.w3.org/1999/xlink" x="0px" y="0px"
	 width="195px" height="120px" viewBox="0 0 195 120" enable-background="new 0 0 195 120" xml:space="preserve">
<path fill-rule="evenodd" clip-rule="evenodd" fill="#BF3B27" d="M193.738,104.831c0,7.702-6.303,14.005-14.005,14.005H15.267
	c-7.702,0-14.004-6.303-14.004-14.005V15.169c0-7.702,6.302-14.004,14.004-14.004h164.466c7.702,0,14.005,6.302,14.005,14.004
	V104.831z"/>
<g>
	<linearGradient id="SVGID_1_" gradientUnits="userSpaceOnUse" x1="97.5063" y1="116.0283" x2="97.5063" y2="3.6162">
		<stop  offset="0" style="stop-color:#D14328"/>
		<stop  offset="1" style="stop-color:#D95130"/>
	</linearGradient>
	<path fill-rule="evenodd" clip-rule="evenodd" fill="url(#SVGID_1_)" d="M16.319,3.616h162.375c6.898,0,12.49,5.592,12.49,12.49
		v87.433c0,6.897-5.592,12.489-12.49,12.489H16.319c-6.898,0-12.491-5.592-12.491-12.489V16.106
		C3.828,9.208,9.421,3.616,16.319,3.616z"/>
</g>
<g>
	<path fill-rule="evenodd" clip-rule="evenodd" fill="#E25743" d="M3.828,16.106v2.234c0-6.898,5.593-12.49,12.491-12.49h162.375
		c6.898,0,12.49,5.592,12.49,12.49v-2.234c0-6.898-5.592-12.49-12.49-12.49H16.319C9.421,3.616,3.828,9.208,3.828,16.106z"/>
</g>
<g>
	<path fill="#91211D" d="M158.121,36.157h-8.836c-1.239,3.462-3.525,6.491-6.858,9.087c-3.332,2.596-6.42,4.359-9.263,5.29v9.881
		c5.401-1.782,9.021-4.534,13.001-8.254v33.887h11.956V36.157z"/>
	<path fill-rule="evenodd" clip-rule="evenodd" fill="#91211D" d="M108.394,48.856h5.771v30.991h-5.771V48.856z"/>
	<path fill-rule="evenodd" clip-rule="evenodd" fill="#91211D" d="M95.999,67.133v-5.934h30.828v5.934H95.999z"/>
</g>
<g>
	<path fill="#FFFFFF" d="M158.121,34.791h-8.836c-1.239,3.462-3.525,6.491-6.858,9.087c-3.332,2.596-6.42,4.36-9.263,5.289v9.882
		c5.401-1.782,9.021-4.534,13.001-8.254v33.887h11.956V34.791z"/>
	<path fill-rule="evenodd" clip-rule="evenodd" fill="#FFFFFF" d="M108.394,47.49h5.771v30.99h-5.771V47.49z"/>
	<path fill-rule="evenodd" clip-rule="evenodd" fill="#FFFFFF" d="M95.999,65.767v-5.934h30.828v5.934H95.999z"/>
</g>
<g>
	<path fill="#91211D" d="M43.993,90.081l-5.033-3.914c-1.532-1.264-3.624-2.943-3.624-6.023c0-3.087,2.092-5.053,3.907-6.87
		c5.863-4.616,11.723-9.528,11.723-19.894c0-9.463-5.062-14.944-8.49-17.917c1.15,0,7.909,0,7.909,0l8.259-6.041h-28.75
		c-7.542,0-17.028,1.122-24.987,7.708c-0.373,0.321-0.733,0.651-1.083,0.987v34.563c3.829,3.182,8.984,5.218,15.32,5.218
		c1.399,0,2.929-0.146,4.468-0.283c-0.697,1.685-1.396,3.087-1.396,5.47c0,4.34,2.229,6.996,4.188,9.523
		c-5.336,0.36-14.608,0.922-22.58,4.346v8.183c2.883-3.915,7.439-5.624,9.458-6.36c5.862-1.963,13.402-2.246,14.664-2.246
		c1.388,0,2.086,0,3.199,0.146c10.616,7.567,16.724,11.34,16.724,18.498c0,0.285-0.01,0.568-0.029,0.85
		c1.033,0,7.603,0.004,8.279,0.004c0.722-2.073,1.096-4.199,1.096-6.322C57.214,100.037,50.131,95.269,43.993,90.081z
		 M26.179,73.032c-12.006,0-17.264-14.608-17.264-23.992c0-3.65,0.696-7.426,3.07-10.37c2.237-2.803,6.141-4.625,9.774-4.625
		c11.582,0,17.112,15.691,17.112,25.78c0,2.021-0.71,5.971-3.329,8.971C33.245,71.415,29.667,73.032,26.179,73.032z"/>
</g>
<g>
	<path fill="#FFFFFF" d="M43.993,88.716l-5.033-3.915c-1.532-1.264-3.624-2.944-3.624-6.022c0-3.088,2.092-5.053,3.907-6.871
		c5.863-4.616,11.723-9.527,11.723-19.894c0-9.463-5.062-14.944-8.49-17.917c1.15,0,7.909,0,7.909,0l8.259-6.041h-28.75
		c-7.542,0-17.028,1.122-24.987,7.708c-0.373,0.322-0.733,0.651-1.083,0.988v34.563c3.829,3.182,8.984,5.218,15.32,5.218
		c1.399,0,2.929-0.145,4.468-0.283c-0.697,1.685-1.396,3.088-1.396,5.47c0,4.339,2.229,6.997,4.188,9.522
		c-5.336,0.361-14.608,0.923-22.58,4.347v8.183c2.883-3.916,7.439-5.623,9.458-6.359c5.862-1.964,13.402-2.246,14.664-2.246
		c1.388,0,2.086,0,3.199,0.145c10.616,7.568,16.724,11.34,16.724,18.499c0,0.757-0.068,1.495-0.198,2.216h7.92
		c1.066-2.5,1.623-5.094,1.623-7.685C57.214,98.671,50.131,93.902,43.993,88.716z M26.179,71.666
		c-12.006,0-17.264-14.609-17.264-23.992c0-3.651,0.696-7.426,3.07-10.37c2.237-2.803,6.141-4.625,9.774-4.625
		c11.582,0,17.112,15.691,17.112,25.781c0,2.021-0.71,5.971-3.329,8.972C33.245,70.049,29.667,71.666,26.179,71.666z"/>
</g>
<g>
</g>
<g>
</g>
<g>
</g>
<g>
</g>
<g>
</g>
<g>
</g>
</svg>
