<?xml version="1.0" encoding="utf-8"?>
<!-- Generator: Adobe Illustrator 15.0.1, SVG Export Plug-In . SVG Version: 6.00 Build 0)  -->
<!DOCTYPE svg PUBLIC "-//W3C//DTD SVG 1.1//EN" "http://www.w3.org/Graphics/SVG/1.1/DTD/svg11.dtd">
<svg version="1.1"
	 id="svg2" xmlns:dc="http://purl.org/dc/elements/1.1/" xmlns:rdf="http://www.w3.org/1999/02/22-rdf-syntax-ns#" xmlns:cc="http://creativecommons.org/ns#"
	 xmlns="http://www.w3.org/2000/svg" xmlns:xlink="http://www.w3.org/1999/xlink" x="0px" y="0px" width="256px" height="256px"
	 viewBox="0 0 256 256" enable-background="new 0 0 256 256" xml:space="preserve">
<g id="layer1" transform="translate(-373.64 -318.34)">
	<path id="rect1942" fill="#DD4B38" d="M583.661,328.85H419.628c-19.599,0-35.488,15.889-35.488,35.488v164.014
		c0,19.6,15.889,35.488,35.488,35.488h164.034c19.6,0,35.488-15.889,35.488-35.488V364.338
		C619.15,344.738,603.261,328.85,583.661,328.85z"/>
	
		<linearGradient id="path1950_1_" gradientUnits="userSpaceOnUse" x1="-899.7731" y1="287.9703" x2="-951.4733" y2="137.2798" gradientTransform="matrix(-0.5915 0 0 -0.5915 -88.3114 464.6387)">
		<stop  offset="0" style="stop-color:#FFFFFF"/>
		<stop  offset="1" style="stop-color:#FFFFFF;stop-opacity:0"/>
	</linearGradient>
	<path id="path1950" fill="url(#path1950_1_)" d="M557.06,338.9H446.23c-29.34,0-52.96,23.8-52.96,53.38v108.13
		c0.95,23.08,4.6,8.49,11.56-17.08c8.08-29.71,34.39-55.68,66.44-75.14c24.46-14.86,51.84-24.34,101.681-25.25
		C601.22,382.43,598.72,346.26,557.06,338.9z"/>
</g>
<polygon id="_x2B__3_" fill="#FFFFFF" points="183.615,27.97 202.141,27.97 202.141,71.183 245.51,71.183 245.51,89.32 
	202.141,89.32 202.141,132.926 183.615,132.926 183.615,89.32 140.404,89.32 140.404,71.183 183.615,71.183 "/>
<linearGradient id="SVGID_1_" gradientUnits="userSpaceOnUse" x1="-13.8081" y1="98.0005" x2="-13.8081" y2="314.0747" gradientTransform="matrix(1 0 0 -1 91 343.5)">
	<stop  offset="0" style="stop-color:#F2F2F2"/>
	<stop  offset="0.2413" style="stop-color:#F6F6F6"/>
	<stop  offset="1" style="stop-color:#FFFFFF"/>
</linearGradient>
<path fill="url(#SVGID_1_)" d="M108.664,177.771l-12.285-9.553c-3.738-3.088-8.846-7.187-8.846-14.706
	c0-7.531,5.108-12.333,9.54-16.77c14.312-11.268,27.649-23.257,27.649-48.562c0-23.098-12.479-36.074-20.847-43.323
	c2.801,0,20.882,0,20.882,0l19.129-15.433H71.856c-17.865,0.328-39.176,3.019-58.605,19.091c-0.909,0.781-1.889,1.7-2.751,2.517
	v83.348c9.35,7.762,22.037,13.646,37.5,13.646c3.415,0,7.152-0.351,10.91-0.679c-1.702,4.104-3.41,7.529-3.41,13.343
	c0,10.594,5.448,17.074,10.218,23.248c-13.021,0.881-39.776-1.331-55.218,11.016c0,0,0,10.585,0,14.336s0.308,5.339,0.308,5.339
	c7.033-9.562,17.964-13.833,22.888-15.632c14.305-4.791,32.721-5.479,35.8-5.479c3.391,0,5.089,0,7.81,0.354
	c25.908,18.48,44.475,27.977,44.674,45.452c0.029,3.388-0.927,4.444-1.435,6.176h19.945c2.068-4.806,2.75-10.476,2.75-16.806
	C143.235,205.082,123.646,190.433,108.664,177.771z M65.18,134.381c-29.311,0-41.338-33.891-41.338-56.788
	c0-8.916,0.888-18.135,6.687-25.319c5.46-6.839,14.988-11.282,23.861-11.282c28.273,0,42.546,38.295,42.546,62.923
	c0,4.933-2.508,14.579-8.909,21.906C82.429,132.208,73.692,134.381,65.18,134.381z"/>
</svg>
